<svg xmlns="http://www.w3.org/2000/svg" width="27.642" height="27.642" viewBox="0 0 27.642 27.642"><defs><style>.a{fill:#fff;}</style></defs><g transform="translate(-50.27 -48)"><path class="a" d="M64.091,75.642A13.821,13.821,0,1,1,77.912,61.821,13.836,13.836,0,0,1,64.091,75.642Zm0-25.636A11.815,11.815,0,1,0,75.906,61.821,11.829,11.829,0,0,0,64.091,50.006Z"/><path class="a" d="M168.567,169.649a1,1,0,0,1-.709-.293l-11.488-11.489a1,1,0,1,1,1.418-1.418l11.489,11.489a1,1,0,0,1-.709,1.712Z" transform="translate(-98.732 -100.924)"/><path class="a" d="M157.085,169.648a1,1,0,0,1-.709-1.712l11.488-11.489a1,1,0,1,1,1.419,1.418l-11.489,11.489A1,1,0,0,1,157.085,169.648Z" transform="translate(-98.739 -100.923)"/></g></svg>