<svg xmlns="http://www.w3.org/2000/svg" width="28.579" height="24.319" viewBox="0 0 28.579 24.319">
	<defs>
		<style>.a{fill:#000;}</style>
	</defs>
	<path class="a" d="M4.041,10.864h24.5a2.263,2.263,0,0,0,2.041-2.432A2.263,2.263,0,0,0,28.538,6H4.041A2.263,2.263,0,0,0,2,8.432,2.263,2.263,0,0,0,4.041,10.864Zm24.5,4.864H4.041A2.263,2.263,0,0,0,2,18.16a2.263,2.263,0,0,0,2.041,2.432h24.5a2.263,2.263,0,0,0,2.041-2.432A2.263,2.263,0,0,0,28.538,15.728Zm0,9.728H4.041A2.263,2.263,0,0,0,2,27.887a2.263,2.263,0,0,0,2.041,2.432h24.5a2.263,2.263,0,0,0,2.041-2.432A2.263,2.263,0,0,0,28.538,25.455Z" transform="translate(-2 -6)"/>
</svg>
