<svg xmlns="http://www.w3.org/2000/svg" width="23.441" height="27.441" viewBox="0 0 26.441 26.441">
	<g transform="translate(-3.4 -4.8)">
		<path d="M22.224,16.7a6.824,6.824,0,1,0,6.824,6.824A6.837,6.837,0,0,0,22.224,16.7Zm0,11.195a4.371,4.371,0,1,1,4.371-4.371A4.391,4.391,0,0,1,22.224,27.895Z" transform="translate(-5.603 -5.556)" fill="#fff"/>
		<circle cx="1.546" cy="1.546" r="1.546" transform="translate(22.165 9.438)" fill="#fff"/>
		<path d="M27.709,6.986a7.592,7.592,0,0,0-5.6-2.186H11.13A7.3,7.3,0,0,0,3.4,12.53V23.458a7.671,7.671,0,0,0,2.239,5.7,7.78,7.78,0,0,0,5.544,2.079H22.058a7.872,7.872,0,0,0,5.6-2.079,7.632,7.632,0,0,0,2.186-5.651V12.53A7.642,7.642,0,0,0,27.709,6.986ZM27.5,23.511A5.209,5.209,0,0,1,25.95,27.4a5.51,5.51,0,0,1-3.892,1.386H11.183A5.51,5.51,0,0,1,7.292,27.4a5.359,5.359,0,0,1-1.439-3.945V12.53A5.315,5.315,0,0,1,7.292,8.638a5.421,5.421,0,0,1,3.892-1.386H22.165a5.315,5.315,0,0,1,3.892,1.439A5.5,5.5,0,0,1,27.5,12.53V23.511Z" transform="translate(0)" fill="#fff"/>
	</g>
</svg>
