<?xml version="1.0" encoding="utf-8"?>
<!-- Generator: Adobe Illustrator 25.3.1, SVG Export Plug-In . SVG Version: 6.00 Build 0)  -->
<svg version="1.1" id="Layer_1"
	xmlns="http://www.w3.org/2000/svg"
	xmlns:xlink="http://www.w3.org/1999/xlink" x="0px" y="0px" viewBox="0 0 300 63" style="enable-background:new 0 0 300 63;" xml:space="preserve">
	<style type="text/css">
	.st0{fill:#141414;}
	</style>
	<g>
		<g>
			<path class="st0" d="M280.3,13.9c0-0.9,0-2.7,0-3.6c0-0.5-0.4-0.9-0.8-0.9c-0.6,0-0.9,0-1.2,0c-0.3,0-0.6,0-1.2,0
			c-0.4,0-0.8,0.4-0.8,0.9c0,0.9,0,2.7,0,3.6"/>
			<path class="st0" d="M276.2,18.5c0,0.2,0,0.3,0,0.4c0,1.2,0,3.5,0,4.7c0,0.3-0.1,0.4-0.3,0.5c-1.2,0.8-2.1,2-2.6,3.6
			c-0.4,1.2-0.4,2.5-0.4,3.9v10.3l0,6.3c0,0.7,0.1,1.2,0.6,1.5c1.8,0,3.3,0,4.7,0s3,0,4.7,0c0.5-0.3,0.7-0.8,0.6-1.5l0-6.3V31.6
			c0-1.3,0-2.6-0.4-3.9c-0.5-1.6-1.4-2.8-2.6-3.6c-0.2-0.1-0.3-0.2-0.3-0.5c0-1.2,0-3.5,0-4.7c0-0.1,0-0.3,0-0.4"/>
		</g>
		<g>
			<path class="st0" d="M30.5,49.6L16.4,15.9h7.8l6.5,16.7c2.4,6.3,3.4,9.5,4.1,11.6h0.1c0.5-1.9,1.3-4,4.2-11.7l6.5-16.5h7.6
			L38.8,49.6H30.5z"/>
			<path class="st0" d="M67.2,49.6V37.3c0-0.4-0.1-0.6-0.4-1l-14-20.4h8.4c3.5,5.4,8.2,12.4,9.8,15.5c1.7-3.1,6.4-10,9.9-15.5h7.8
			L74.5,36.5c-0.2,0.3-0.2,0.5-0.2,0.9v12.2H67.2z"/>
			<path class="st0" d="M92.5,15.9h16.9c8,0,12.8,4.1,12.8,10.4c0,6.8-4.8,10.8-12.9,10.8h-9.8v12.6h-7.1V15.9z M99.6,31.5h9.2
			c3.8,0,6.4-1.2,6.4-5.1c0-3.1-2-4.9-6.4-4.9h-9.2V31.5z"/>
			<path class="st0" d="M135.3,15.9v33.7h-7.1V15.9H135.3z"/>
			<path class="st0" d="M176,36.2c0-6,0-12,0.2-15.7h0c-1.7,5.9-5.7,17-9.9,29.1h-6.2c-3.3-10.4-7.7-23.1-9.6-29.1h0
			c0.2,3.9,0.5,10.7,0.5,16.4v12.8h-6.4V15.9h10.2c3.8,10.6,7.8,21.3,8.8,25.4h0c1.5-4.9,5.4-15.3,9-25.4h10.3v33.7H176V36.2z"/>
			<path class="st0" d="M218.3,34.9H199v9h21.4l-0.8,5.7H192V15.9h27.4v5.7H199v7.5h19.3V34.9z"/>
			<path class="st0" d="M244.2,39.6c1.1,3.2,3.6,5.4,9.5,5.4c5.7,0,7.5-1.9,7.5-4.4c0-2.6-1.7-4.2-9.3-5.5
			c-11.2-1.9-13.5-5.5-13.5-10c0-6.5,6.2-9.9,14-9.9c11.4,0,14.3,5.9,14.7,9.7h-7.1c-0.6-1.9-1.8-4.3-7.8-4.3
			c-4.2,0-6.6,1.3-6.6,3.9c0,2.2,1.4,3.4,8.2,4.6c12.6,2.2,14.6,6.1,14.6,10.9c0,5.7-4.5,10.4-15.4,10.4c-10.2,0-15-4.6-16-10.7
			H244.2z"/>
		</g>
	</g>
</svg>
