<?xml version="1.0" encoding="utf-8"?>
<!-- Generator: Adobe Illustrator 25.3.1, SVG Export Plug-In . SVG Version: 6.00 Build 0)  -->
<svg version="1.1" id="Layer_1"
	xmlns="http://www.w3.org/2000/svg"
	xmlns:xlink="http://www.w3.org/1999/xlink" x="0px" y="0px" viewBox="0 0 64.1 64.1" style="enable-background:new 0 0 64.1 64.1;" xml:space="preserve">
	<style type="text/css">
	.st0{fill:#414141;}
	</style>
	<path id="Path_48" class="st0" d="M32,0C14.3,0,0,14.3,0,32s14.3,32,32,32c17.7,0,32-14.3,32-32c0,0,0,0,0,0C64,14.3,49.7,0,32,0z
	 M18.1,19h27.8c1,0,2,0.3,2.8,1c-0.1,0-0.1,0.1-0.2,0.1L32.2,36L15.7,20.1c-0.1-0.1-0.2-0.1-0.2-0.2C16.2,19.3,17.2,19,18.1,19
	L18.1,19z M13.6,40.5v-17c0-0.3,0-0.6,0.1-0.9l10.1,9.7l-9.9,9.8C13.7,41.7,13.6,41.1,13.6,40.5z M45.9,45.1H18.1
	c-0.7,0-1.4-0.2-2-0.5l10-10l4.9,4.7c0.3,0.3,0.7,0.4,1.1,0.4c0.4,0,0.8-0.2,1.1-0.4l4.8-4.6c6.1,6.4,8.6,9,9.9,9.9
	C47.3,44.9,46.6,45.1,45.9,45.1L45.9,45.1z M50.4,40.5c0,0.6-0.1,1.1-0.3,1.7c-0.1-0.1-0.3-0.2-0.4-0.3c-0.9-0.8-5.3-5.2-9.3-9.4
	l10-9.7c0.1,0.3,0.1,0.5,0.1,0.8L50.4,40.5z"/>
</svg>
