<?xml version="1.0" encoding="utf-8"?>
<!-- Generator: Adobe Illustrator 25.3.1, SVG Export Plug-In . SVG Version: 6.00 Build 0)  -->
<svg version="1.1" id="Layer_1"
	xmlns="http://www.w3.org/2000/svg"
	xmlns:xlink="http://www.w3.org/1999/xlink" x="0px" y="0px" viewBox="0 0 64.1 64.1" style="enable-background:new 0 0 64.1 64.1;" xml:space="preserve">
	<style type="text/css">
	.st0{fill:#414141;}
	</style>
	<path id="Path_47" class="st0" d="M32,0C14.3,0,0,14.3,0,32s14.3,32,32,32c17.7,0,32-14.3,32-32C64,14.4,49.7,0,32,0z M30.2,14.5
	c1.7,3.3,2.9,8.3-1.1,9.9c-1.1-3.1-3.8-12-3.8-12C27.3,11.8,29.4,12.7,30.2,14.5z M33.2,49.9C30.4,48,25,42.2,21.8,34.2
	c-1.8-4.4-2.3-9.2-2.3-14.6c0.1-4.7,2.1-6.1,4.2-6.7l3.8,11.9c0,0-2.6,0.9-1.5,4.2c0.9,4.3,2.9,8.3,5.7,11.7c0.7,1.1,1.7,1.1,3.1,0
	c1,2.5,5.5,11,5.5,11S37.4,52.8,33.2,49.9L33.2,49.9z M42.3,50.8L36.5,40c3.3-1.9,4.9,0.5,4.9,0.5s1.5,3,2.9,5.5
	S42.3,50.8,42.3,50.8L42.3,50.8z"/>
</svg>
